# xmcd
#
# Track frame offsets:
#	150
#	13750
#	26652
#	44437
#	62380
#	80460
#	93327
#	112410
#	128477
#	149882
#	168500
#
# Disc length: 2451 seconds
#
# Revision: 0
# Processed by: cddbd v1.5.2PL0 Copyright (c) Steve Scherf et al.
# Submitted via: audiograbber 1.83.01
#
DISCID=9709910b
DTITLE=Michael Peterson - Being Human
DYEAR=1999
DGENRE=Country
TTITLE0=Laughin' All the Way to the Bank
TTITLE1=You Find Love When You Make It
TTITLE2=I Owe It All to You
TTITLE3=Somethin' 'Bout a Sunday
TTITLE4=Let Me Love You One More Time
TTITLE5=Sure Feels Real Good
TTITLE6=Being Human
TTITLE7=Stomp
TTITLE8=Two of the Lucky Ones (With Bekka Bramlett)
TTITLE9=Slow Dance
TTITLE10=Before Another Day Goes By
EXTD=
EXTT0=
EXTT1=
EXTT2=
EXTT3=
EXTT4=
EXTT5=
EXTT6=
EXTT7=
EXTT8=
EXTT9=
EXTT10=
PLAYORDER=
